<svg width="35" height="35" viewBox="0 0 35 35" fill="none" xmlns="http://www.w3.org/2000/svg">
<path d="M0.24119 2.35751C-0.0803968 4.3229 -0.0803968 5.17741 0.24119 7.00038C0.445837 8.22518 0.796659 9.50695 1.00131 9.84876C1.55677 10.7033 1.52754 12.1844 0.942835 13.5232C0.592013 14.3207 0.445837 15.574 0.445837 18.0521C0.416602 21.8405 0.884365 23.6919 2.66771 26.7397C3.95406 29.0184 7.31611 32.0946 9.59645 33.177C12.9 34.7152 14.1571 35 17.6361 35C19.858 35 21.3198 34.8576 22.3138 34.5443C28.2777 32.6074 31.9906 29.0469 34.3294 23.0368C35.1188 20.9859 35.0311 15.4601 34.1833 13.039L33.5108 11.1305L34.154 9.76331C34.8849 8.13973 35.2357 4.15199 34.8264 1.6739C34.6218 0.392124 34.4756 0.107285 34.0078 0.107285C33.5985 0.107285 33.3354 0.449093 33.0723 1.41754C32.5753 3.0696 30.5873 5.3768 29.6518 5.3768C29.2717 5.3768 28.4532 4.97802 27.8392 4.4938C24.7403 2.10115 19.6534 0.790897 15.5897 1.38906C12.1107 1.87328 10.3566 2.5569 7.08223 4.72167C6.32211 5.23438 5.59123 5.66164 5.47429 5.66164C4.80188 5.66164 2.63848 3.04112 2.11224 1.64541C1.23519 -0.747231 0.708953 -0.547844 0.24119 2.35751ZM25.0911 15.2037C25.0911 15.4031 24.8865 15.8019 24.6233 16.0582C24.1848 16.457 24.1848 16.5994 24.6526 17.5109C25.0911 18.4224 25.0911 18.5933 24.6818 19.163C23.5709 20.815 20.9982 19.7611 21.5244 17.8527C21.6998 17.1691 24.5064 14.4631 24.828 14.6625C24.9742 14.748 25.0911 14.9759 25.0911 15.2037ZM12.2276 15.9728C14.0987 17.7958 14.3033 18.9351 12.9585 19.7896C12.4323 20.1314 12.1399 20.1314 11.5552 19.8751C10.4735 19.3909 10.1519 18.4794 10.6782 17.397C11.0874 16.5994 11.0874 16.457 10.6489 16.0582C10.1519 15.5455 10.0642 15.2607 10.3858 14.9759C10.7366 14.634 10.9705 14.748 12.2276 15.9728ZM10.9997 20.815C11.1459 21.1568 12.6369 21.8974 14.4203 22.5241C16.2621 23.1792 19.4195 23.2077 20.9105 22.581C22.7523 21.812 23.7463 21.2708 24.0679 20.9005C24.5064 20.3878 25.5881 20.1314 25.822 20.4732C26.1436 20.9575 24.9742 22.0114 22.9569 23.0938C21.1736 24.0052 21.0566 24.0337 17.6361 24.0337C14.2156 24.0337 14.0987 24.0052 12.3738 23.0653C10.2981 21.9259 9.15792 20.929 9.45028 20.5017C9.65492 20.1314 10.8536 20.3878 10.9997 20.815Z" fill="url(#paint0_linear_181_316)"/>
<defs>
<linearGradient id="paint0_linear_181_316" x1="17.5" y1="35" x2="17.5" y2="0" gradientUnits="userSpaceOnUse">
<stop stop-color="#A05CE3"/>
<stop offset="1" stop-color="#5709A7"/>
</linearGradient>
</defs>
</svg>
